<?xml version="1.0" encoding="utf-8"?>
<!-- Generator: Adobe Illustrator 25.0.0, SVG Export Plug-In . SVG Version: 6.00 Build 0)  -->
<svg version="1.1" id="Calque_1" xmlns="http://www.w3.org/2000/svg" xmlns:xlink="http://www.w3.org/1999/xlink" x="0px" y="0px"
	 viewBox="0 0 300 93" style="enable-background:new 0 0 300 93;" xml:space="preserve">
<g>
	<path d="M132.7,32.8c0,0.2,0.2,0.3,0.4,0.2c0.1,0,0.1,0,0.2-0.1l9-10.2c0.5-0.6,1.2-0.9,2-0.9l4.5-0.1c0.7,0,0.8,0.2,0.3,0.8
		c-4.3,4.6-8.7,9.3-13.3,14.2c-2.8,2.9-4.2,7.6-5.5,11.2c-0.2,0.6-0.8,1-1.4,1l-3.5,0c-0.7,0-1-0.3-0.7-1l3.3-8.4
		c0.3-0.8,0.4-1.6,0.1-2.4l-4-14.5c-0.1-0.5,0-0.7,0.5-0.7l4.5,0c0.5,0,0.9,0.3,1.1,0.8L132.7,32.8z"/>
	<path d="M252.6,31.4c0-0.2-0.2-0.3-0.4-0.2c-0.1,0-0.2,0.1-0.3,0.3l-7,16.6c-0.2,0.5-0.7,0.8-1.2,0.8l-3.7,0
		c-0.4,0-0.5-0.2-0.4-0.6l10.9-25.7c0.2-0.5,0.6-0.8,1.1-0.8l3.9-0.1c0.4,0,0.7,0.3,0.8,0.6l3,16.7c0,0.2,0.2,0.3,0.4,0.2
		c0.3-0.1,0.5-0.2,0.6-0.5c2-5.1,4.3-10.5,6.8-16.2c0.2-0.6,0.8-0.9,1.4-0.9l3.2,0c0.6,0,0.8,0.3,0.6,0.9l-11,25.4
		c-0.2,0.5-0.7,0.8-1.2,0.8l-3.8,0c-0.4,0-0.7-0.3-0.8-0.7L252.6,31.4z"/>
	<path d="M274.7,44.4l15,0c0.2,0,0.4,0.2,0.4,0.4c0,0.1,0,0.1,0,0.2l-1.6,3.7c-0.1,0.1-0.2,0.2-0.3,0.2l-20.6,0
		c-0.2,0-0.4-0.2-0.4-0.4c0,0,0-0.1,0-0.1L278.5,22c0.1-0.1,0.2-0.2,0.3-0.2l19.7,0c0.2,0,0.4,0.2,0.4,0.4c0,0.1,0,0.1,0,0.2
		l-1.7,3.6c-0.1,0.1-0.2,0.2-0.3,0.2l-14.3,0c-0.1,0-0.3,0.1-0.3,0.2l-7.8,17.6c-0.1,0.2,0,0.4,0.2,0.5
		C274.6,44.4,274.7,44.4,274.7,44.4z"/>
	<path d="M157.6,42.8l-10.2,0c-0.2,0-0.4,0.1-0.5,0.2l-4,5.5c-0.1,0.1-0.3,0.2-0.4,0.2l-4.3,0.1c-0.3,0-0.6-0.3-0.6-0.6
		c0-0.1,0-0.2,0.1-0.3l19.8-25.9c0.1-0.1,0.3-0.2,0.5-0.2l5.4,0c0.3,0,0.6,0.2,0.6,0.6c0,0,0,0,0,0l-0.6,25.9c0,0.3-0.3,0.6-0.6,0.6
		l-4.4,0c-0.3,0-0.6-0.3-0.6-0.6c0,0,0,0,0,0l0.4-4.8C158.2,43.1,157.9,42.9,157.6,42.8C157.6,42.8,157.6,42.8,157.6,42.8z
		 M150.5,37.7c-0.1,0.2-0.1,0.4,0.1,0.6c0.1,0.1,0.2,0.1,0.3,0.1l6.9,0.1c0.2,0,0.4-0.2,0.4-0.4l0.7-9.9c0-0.2-0.2-0.4-0.4-0.5
		c-0.1,0-0.3,0-0.4,0.2L150.5,37.7z"/>
	<path d="M174.9,44.4l12.9,0c0.3,0,0.5,0.2,0.5,0.5c0,0.1,0,0.1,0,0.2l-1.7,3.5c-0.1,0.2-0.2,0.3-0.4,0.3l-18.5,0
		c-0.3,0-0.5-0.2-0.5-0.5c0-0.1,0-0.1,0-0.2l10.6-26.1c0.1-0.2,0.2-0.3,0.4-0.3h4.6c0.3,0,0.5,0.2,0.5,0.5c0,0.1,0,0.1,0,0.2
		l-8.8,21.4c-0.1,0.2,0,0.5,0.2,0.6C174.7,44.4,174.8,44.4,174.9,44.4z"/>
	<path d="M190.1,48.4L201,22c0.1-0.1,0.2-0.2,0.3-0.2l4.9,0c0.2,0,0.3,0.1,0.3,0.3c0,0,0,0.1,0,0.1l-11,26.4
		c-0.1,0.1-0.2,0.2-0.3,0.2l-4.8,0c-0.2,0-0.3-0.1-0.3-0.3C190,48.4,190.1,48.4,190.1,48.4z"/>
	<path d="M201,48.6l11-26.3c0.1-0.3,0.4-0.5,0.7-0.5c3.5,0,7,0.1,10.5,0.3c12.1,0.5,6.8,14.9,2.6,20.1c-6.6,8.2-15.5,6.7-24.8,6.7
		C201,48.8,201,48.8,201,48.6C201,48.7,201,48.6,201,48.6z M215.7,26.6l-7.3,17.5c-0.1,0.3,0,0.5,0.4,0.5c1.4-0.1,2.9-0.1,4.4-0.1
		c6.6,0.1,11.1-7.5,11.9-13.2c0.9-5.7-5.2-5.4-8.7-5.2C216.1,26.1,215.8,26.3,215.7,26.6z"/>
	<path d="M245.1,22.3l-11.2,26.4c-0.1,0.1-0.2,0.2-0.3,0.2l-4.8-0.1c-0.2,0-0.3-0.2-0.3-0.3c0,0,0-0.1,0-0.1L239.6,22
		c0.1-0.1,0.2-0.2,0.3-0.2l4.9,0c0.2,0,0.3,0.2,0.3,0.3C245.1,22.2,245.1,22.2,245.1,22.3z"/>
	<path d="M287,35l-8,4.6c-0.2,0.1-0.4,0-0.5-0.2c-0.1-0.1-0.1-0.2,0-0.3l3.8-8.4c0.1-0.2,0.3-0.3,0.5-0.2c0,0,0.1,0,0.1,0.1l4.3,3.9
		C287.3,34.5,287.3,34.7,287,35C287.1,34.9,287.1,34.9,287,35z"/>
</g>
<g>
	<path d="M208.1,59.6c-0.2,0.6,0,1.2,0.5,1.5c1.7,0.9,5.8,2.6,6.2,4.5c0.6,3-2.7,6.2-5.2,7.3c-1.1,0.4-3.3,0.4-6.7-0.1
		c-0.3,0-0.6-0.2-0.8-0.4c-1.2-1.2-2.2-4.2-0.6-5.4c0.8-0.6,1.8-0.4,2.4,0.4c0.1,0.1,0.1,0.2,0.2,0.4l0.6,1.4
		c0.1,0.3,0.4,0.5,0.7,0.6c1.8,0.5,3.4,0.3,4.8-0.7c0.7-0.5,0.9-1.5,0.4-2.2c-0.1-0.2-0.3-0.3-0.5-0.5c-2.8-1.8-7.1-2.8-5.4-7.1
		c2-4.9,12.6-6.2,12.7,0.1c0,0.3-0.1,0.6-0.4,0.8c-3,1.9-3.1-1.8-5.3-2.2C209.9,57.6,208.7,58.2,208.1,59.6z"/>
	<path d="M224.6,60.6c2.5,2.3,8.4,3,5.9,8c-1.5,2.9-3.7,4.4-6.6,4.5c-3.5,0.1-6.5,0.1-7.1-4.1c-0.1-0.7,0.2-1.5,0.8-1.9
		c0.6-0.4,1.2-0.5,1.9-0.4c0.3,0.1,0.6,0.3,0.7,0.6l0.7,1.6c0.2,0.4,0.4,0.6,0.8,0.7c1.8,0.6,3.5,0.3,5-0.8c0.7-0.5,0.8-1.5,0.3-2.1
		c-0.1-0.2-0.3-0.3-0.5-0.4c-1.7-0.9-5.7-2.5-5.8-4.7c-0.3-6.8,10.9-9.1,13.1-3.3c0.3,0.8-0.1,1.7-0.9,2c0,0-0.1,0-0.1,0
		c-0.7,0.2-1.3,0.1-1.9-0.1c-0.3-0.1-0.6-0.4-0.7-0.7c-1.1-2.8-4.7-1.9-5.8,0.1C224.2,60,224.3,60.4,224.6,60.6z"/>
	<path d="M130.5,70.4l-0.3,2.1c0,0.3-0.3,0.5-0.6,0.5l-13,0c-0.3,0-0.6-0.3-0.6-0.6c0-0.1,0,0.2,0.1-0.2l7.2-16.4
		c0.1-0.2,0.3-0.3,0.5-0.3l11.8-0.1c0.3,0,0.6,0.3,0.6,0.6c0,0.1,0,0.2-0.1,0.3l-0.9,1.8c-0.1,0.2-0.3,0.3-0.5,0.3l-8.5-0.1
		c-0.2,0-0.4,0.1-0.5,0.4L121,69c-0.1,0.3,0,0.6,0.3,0.8c0.1,0,0.2,0.1,0.3,0.1l8.4-0.1C130.2,69.7,130.5,70,130.5,70.4
		C130.5,70.3,130.5,70.4,130.5,70.4z"/>
	<path d="M142.9,60.3c0.1,0.4,0.4,0.6,0.8,0.6c0.1,0,0.3-0.1,0.4-0.2c2.2-2.3,5.5-6.2,9-5.3c0.8,0.2,0.9,0.6,0.3,1.1l-8.5,7.4
		c-0.4,0.3-0.5,0.9-0.4,1.3l2.1,6.6c0.3,0.9,0,1.3-0.9,1.3l-1.9,0c-0.8,0-1.5-0.6-1.6-1.4l-0.6-3.6c-0.1-0.3-0.3-0.5-0.7-0.5
		c-0.1,0-0.2,0.1-0.3,0.2l-4.5,4.4c-0.8,0.8-1.7,1.1-2.8,0.9l-1-0.1c-1.3-0.1-1.4-0.6-0.5-1.5l7.7-6.9c0.5-0.4,0.7-1.1,0.5-1.8
		l-1.9-5.9c-0.3-1,0-1.5,1.1-1.5l0.9,0c1.2,0,1.9,0.6,2.1,1.8L142.9,60.3z"/>
	<path d="M154.7,66.9l-2.2,5.3c-0.2,0.6-0.8,0.9-1.4,0.9l-1.5-0.1c-0.4,0-0.8-0.4-0.7-0.8c0-0.1,0-0.2,0.1-0.3l6.8-15.4
		c0.3-0.7,1-1.1,1.7-1.1c3-0.1,11.9-1.4,10.5,4.2c-1.4,5.6-6.6,7-11.7,6.4C155.5,65.9,154.9,66.3,154.7,66.9z M156.9,61.7
		c-0.3,0.5-0.1,1.1,0.4,1.4c0.2,0.1,0.4,0.1,0.6,0.1l4.1-0.6c0.3,0,0.6-0.2,0.7-0.5l1.5-2.3c0.3-0.5,0.2-1.1-0.3-1.4
		c-0.2-0.1-0.3-0.2-0.5-0.2l-4.1-0.2c-0.4,0-0.8,0.2-1,0.6L156.9,61.7z"/>
	<path d="M178.9,65.9l1.8,5.6c0.3,0.9,0,1.4-1,1.5l-1.6,0.1c-0.9,0.1-1.4-0.4-1.5-1.3c-0.3-3.9-1.2-6-2.7-6.4
		c-1.3-0.3-2.2,0.1-2.7,1.1c-0.9,2.1-1.7,4-2.2,5.7c-0.2,0.6-0.6,0.9-1.3,0.8l-1.9-0.2c-0.6-0.1-0.8-0.4-0.5-0.9l7-15.7
		c0.3-0.6,0.9-1,1.5-1l9.1,0.2c1.2,0,2.2,1,2.2,2.3c0,4-1.9,6.5-5.8,7.4C178.9,65.3,178.8,65.5,178.9,65.9z M181.4,59.5
		c-0.3-1.2-2.4-1.7-4.6-1.1c0,0,0,0,0,0c-2.2,0.6-3.8,2.1-3.4,3.3c0,0,0,0,0,0c0.3,1.2,2.4,1.7,4.6,1.1c0,0,0,0,0,0
		C180.1,62.1,181.7,60.7,181.4,59.5C181.4,59.5,181.4,59.5,181.4,59.5z"/>
	<path d="M188.4,69.8l8.3-0.1c0.4,0,0.7,0.3,0.7,0.6c0,0.1,0,0.1,0,0.2l-0.6,2c-0.1,0.3-0.3,0.5-0.6,0.5l-12.8,0
		c-0.4,0-0.6-0.3-0.6-0.7c0-0.1,0-0.2,0.1-0.3l7.3-16.4c0.1-0.2,0.3-0.4,0.6-0.4l11.8,0c0.4,0,0.6,0.3,0.6,0.7c0,0.1,0,0.2-0.1,0.3
		l-1,1.7c-0.1,0.2-0.3,0.3-0.6,0.3l-8.6,0c-0.2,0-0.5,0.1-0.6,0.4l-1.3,2.6c-0.2,0.3,0,0.7,0.3,0.9c0.1,0,0.2,0.1,0.3,0.1L199,62
		c0.4,0,0.7,0.3,0.7,0.6c0,0,0,0.1,0,0.1l-0.4,1.9c-0.1,0.3-0.3,0.5-0.7,0.5l-8.7-0.2c-0.3,0-0.5,0.1-0.6,0.4l-1.5,3.4
		c-0.1,0.3,0,0.7,0.3,0.9C188.3,69.8,188.4,69.8,188.4,69.8z"/>
	<path d="M129.4,64.3l-4.5,2.9c-0.2,0.1-0.5,0.1-0.6-0.1c-0.1-0.1-0.1-0.3,0-0.4l2.3-5.5c0.1-0.2,0.3-0.3,0.6-0.2
		c0.1,0,0.1,0.1,0.2,0.1l2.2,2.6C129.6,63.8,129.6,64.1,129.4,64.3C129.4,64.3,129.4,64.3,129.4,64.3z"/>
</g>
<g>
	<path d="M51.1,20.6c15.8-1.4,32.4-0.8,48.2,0.1c0.4,0,0.4,0.1,0.1,0.4L69.7,44.6c-0.1,0.1-0.3,0.1-0.4,0L50.9,21.1
		C50.7,20.8,50.8,20.7,51.1,20.6z"/>
	<path d="M115,23.1c-5.9,14.8-11.7,29.6-17.5,44.4c-1.7,4.2-4.6,5.2-9.1,5.2c-13,0-25.9,0-38.6,0c-0.5,0-0.5-0.2-0.2-0.5l65.3-51.1
		c0.4-0.3,0.5-0.2,0.5,0.3C115.4,21.9,115.3,22.4,115,23.1z"/>
	<path d="M41.9,54.7l-12,0c-0.3,0-0.6,0.1-0.9,0.4c-0.3,0.3-0.4,0.7-0.5,1.1c-0.1,0.3-0.2,0.5-0.6,0.5l-16.5,0.2
		c-0.1,0-0.1,0-0.1-0.1l0-0.3c0-0.1,0.1-0.2,0.2-0.2l17.3-1.6c0.1,0,0.3-0.1,0.3-0.3l1.5-4c0.1-0.2,0-0.2-0.2-0.2
		c-8.1,0.5-16.2,0.6-24.4,0.4c-1.7-0.1-3.4-0.2-5-0.5c0,0,0,0,0,0s0,0,0,0c9.9-0.8,19.8-1.2,29.7-1.1c0.2,0,0.4-0.1,0.5-0.3l1.5-4.1
		c0.1-0.3,0-0.4-0.3-0.4c-7.2,0.1-14.6,0.3-21.8-0.9c0,0-0.1,0-0.1-0.1c0,0,0-0.1,0.1-0.1c7.4-0.7,14.8-0.8,22.3-0.4
		c0.3,0,0.5-0.1,0.6-0.4l6.2-17.4c0.1-0.2,0.2-0.3,0.4-0.2c0.1,0,0.1,0.1,0.2,0.1l19.2,26.8c0.1,0.2,0.1,0.4-0.1,0.5L35,72.7
		c-0.2,0.2-0.5,0.3-0.7,0.3l-7.5,0.1c-2.8,0-3.7-1.3-2.8-3.9l4.3-12c0.1-0.3,0.4-0.5,0.7-0.6l13-1.4c0.1,0,0.3-0.1,0.2-0.3
		S42.1,54.7,41.9,54.7L41.9,54.7z M33.2,42.9v0.9c0,0.1,0.1,0.2,0.2,0.2c0,0,0,0,0,0h0.1c3.9,0,7.1-0.3,7.1-0.7c0,0,0,0,0,0l0,0
		c0-0.3-3.2-0.6-7.2-0.5h-0.1C33.3,42.7,33.2,42.8,33.2,42.9z M31,49.2l0,0.7c0,0.1,0.1,0.2,0.2,0.2c0,0,0,0,0,0l0.2,0
		c4.7-0.2,8.4-0.7,8.4-1v0c0-0.3-3.8-0.3-8.4-0.1c0,0,0,0-0.1,0l-0.2,0C31,49,31,49.1,31,49.2C31,49.2,31,49.2,31,49.2z"/>
</g>
</svg>
